<?xml version="1.0" standalone="no"?>
<!DOCTYPE svg PUBLIC "-//W3C//DTD SVG 20010904//EN"
 "http://www.w3.org/TR/2001/REC-SVG-20010904/DTD/svg10.dtd">
<svg version="1.0" xmlns="http://www.w3.org/2000/svg"
 width="80.000000pt" height="45.000000pt" viewBox="0 0 1500.000000 1500.000000"
 preserveAspectRatio="xMidYMid meet">

<g transform="translate(0.000000,1500.000000) scale(0.100000,-0.100000)"
fill="#FFE600" stroke="#FFE600">
<path d="M0 7500 l0 -7500 7500 0 7500 0 0 7500 0 7500 -7500 0 -7500 0 0
-7500z m10154 3876 l131 -84 305 44 c267 38 319 43 415 38 861 -45 1642 -500
2385 -1389 238 -285 249 -302 485 -775 l217 -433 -45 -44 -44 -45 44 -216 43
-216 0 -265 c0 -146 -5 -318 -10 -381 -116 -1334 -1234 -2349 -3396 -3083
l-221 -75 -409 -41 c-225 -23 -421 -43 -436 -46 -24 -4 -27 -1 -38 47 -23 93
-109 161 -242 193 -107 25 -98 39 -98 -155 l0 -170 -130 0 -130 0 0 257 0 257
-42 43 -42 43 42 43 c37 38 42 48 42 88 l0 45 -112 84 c-242 181 -376 341
-402 481 -9 51 49 836 115 1534 158 1687 382 3022 664 3960 86 286 76 265 127
265 36 0 48 -6 85 -42 l43 -43 83 83 82 82 179 0 179 0 131 -84z m-2976 -41
l127 -85 130 44 130 43 258 -128 257 -129 0 -45 c0 -42 -2 -45 -27 -45 -37 0
-122 -41 -150 -71 -35 -38 -61 -109 -71 -190 -5 -40 -8 -77 -5 -81 2 -5 23 -8
47 -8 36 0 48 -6 81 -40 34 -35 45 -40 85 -40 l46 0 33 168 c18 92 37 188 43
215 l10 47 84 0 84 0 0 -42 c0 -36 -6 -48 -42 -85 l-42 -43 42 -43 c38 -39 42
-47 42 -92 0 -28 -12 -86 -25 -130 -402 -1277 -761 -3009 -1080 -5215 -30
-206 -57 -390 -60 -407 l-6 -33 -84 0 c-47 0 -85 2 -85 5 0 3 39 314 86 691
47 377 83 688 80 692 -14 13 -70 -58 -106 -133 -96 -202 -233 -693 -365 -1315
-21 -96 -43 -185 -51 -197 -18 -28 -176 -134 -268 -178 -87 -42 -210 -75 -278
-75 l-48 0 0 -90 0 -90 -44 0 c-41 0 -44 2 -50 32 -8 42 -71 100 -127 118 -24
7 -82 16 -129 19 l-85 6 -5 355 -6 355 -38 124 c-167 553 -718 1898 -1583
3871 l-99 225 -47 3 c-26 2 -47 -1 -47 -6 0 -5 -20 -103 -44 -218 -167 -793
-328 -1848 -460 -3019 -37 -326 -96 -878 -96 -898 0 -6 -19 8 -43 31 l-43 42
-79 -25 c-44 -15 -115 -44 -160 -67 -179 -90 -250 -169 -280 -310 -5 -28 -5
-28 -93 -28 l-88 0 -13 33 c-97 245 -137 479 -148 870 l-6 217 -44 0 -43 0 0
-390 0 -391 -87 3 -87 3 -43 210 -44 210 6 261 c29 1401 337 3118 897 5009 44
149 92 310 106 359 19 64 32 91 47 97 11 4 160 24 330 44 171 20 317 39 326
41 11 3 123 -87 320 -255 l304 -259 7 60 c8 72 42 144 81 172 20 15 48 22 101
24 l73 4 246 -633 c135 -349 408 -1051 606 -1561 l360 -928 3 -86 3 -86 39
-13 c102 -35 184 -180 251 -445 32 -128 55 -246 55 -288 l0 -33 -47 3 -46 3
-130 388 -129 387 -43 0 -43 0 -87 260 -87 260 -44 0 -44 0 0 -84 0 -84 304
-738 304 -739 44 -3 44 -3 43 268 c164 1028 410 2233 686 3375 92 379 266
1058 272 1058 2 0 61 -38 131 -85z m1712 -6582 c0 -46 -2 -50 -82 -130 -80
-81 -84 -83 -130 -83 l-48 0 0 37 c0 34 9 47 92 130 84 85 96 93 130 93 l38 0
0 -47z"/>
<path d="M9325 10588 c-10 -33 -435 -2527 -435 -2555 0 -32 1 -33 45 -33 38 0
45 3 50 23 2 12 99 553 215 1201 179 1005 210 1194 210 1278 l0 98 -40 0 c-24
0 -42 -5 -45 -12z"/>
<path d="M10706 9956 c-14 -74 -108 -122 -262 -133 l-81 -6 -71 -361 c-126
-636 -203 -1112 -292 -1808 -55 -438 -121 -1060 -146 -1382 l-7 -88 64 7 c382
41 1164 302 2311 771 l218 89 0 48 0 47 -80 0 -80 0 107 123 c277 314 449 623
527 946 41 167 48 263 44 571 -4 257 -7 293 -27 370 -64 238 -203 427 -417
567 -155 100 -364 181 -627 240 l-122 28 -526 3 -527 3 -6 -35z"/>
<path d="M12442 9948 l3 -43 150 -76 c200 -102 195 -101 195 -50 l0 41 -127
85 c-116 77 -132 85 -176 85 l-48 0 3 -42z"/>
<path d="M13182 8268 c-24 -282 -42 -516 -42 -520 0 -5 38 -8 85 -8 l85 0 0
133 c0 122 4 144 44 304 l43 172 -38 193 c-21 106 -41 203 -44 216 -5 18 -12
22 -48 22 l-43 0 -42 -512z"/>
<path d="M13786 7948 c-309 -982 -386 -1239 -386 -1287 l0 -52 42 3 41 3 219
655 c214 642 218 657 218 737 l0 83 -44 0 -45 0 -45 -142z"/>
<path d="M12882 7315 c-45 -91 -82 -170 -82 -176 0 -6 16 -9 38 -7 l37 3 88
173 87 172 -42 0 -43 0 -83 -165z"/>
<path d="M12750 6225 c-162 -162 -289 -295 -282 -295 27 0 133 62 203 118 82
66 210 195 313 314 58 68 66 83 66 118 0 22 -1 40 -3 40 -1 0 -135 -133 -297
-295z"/>
<path d="M10805 5492 l-350 -88 0 -44 0 -45 165 -3 165 -2 220 88 220 88 3 47
3 47 -38 0 c-21 -1 -195 -40 -388 -88z"/>
<path d="M9980 5275 l-135 -44 -42 41 -42 42 42 -127 42 -127 90 0 90 0 83 83
c80 80 82 84 82 130 l0 47 -37 -1 c-21 0 -99 -20 -173 -44z"/>
<path d="M2410 9188 c0 -36 6 -48 42 -85 l42 -43 -42 -43 -42 -43 0 -87 0 -87
43 0 42 0 43 172 43 171 -43 44 c-37 37 -48 43 -85 43 l-43 0 0 -42z"/>
</g>
</svg>
